<?xml version="1.0" standalone="no"?><svg xmlns="http://www.w3.org/2000/svg" viewBox="0 0 1440 320"><path fill="#0099ff" fill-opacity="1" d="M0,64L40,74.7C80,85,160,107,240,144C320,181,400,235,480,234.7C560,235,640,181,720,165.3C800,149,880,171,960,165.3C1040,160,1120,128,1200,101.3C1280,75,1360,53,1400,42.7L1440,32L1440,320L1400,320C1360,320,1280,320,1200,320C1120,320,1040,320,960,320C880,320,800,320,720,320C640,320,560,320,480,320C400,320,320,320,240,320C160,320,80,320,40,320L0,320Z"></path></svg>