<svg id="visual" viewBox="0 0 900 600" width="900" height="600" xmlns="http://www.w3.org/2000/svg" xmlns:xlink="http://www.w3.org/1999/xlink" version="1.1"><rect x="0" y="0" width="900" height="600" fill="#002233"></rect><path d="M0 186L21.5 177.2C43 168.3 86 150.7 128.8 140.3C171.7 130 214.3 127 257.2 141C300 155 343 186 385.8 193.3C428.7 200.7 471.3 184.3 514.2 175.5C557 166.7 600 165.3 642.8 162.8C685.7 160.3 728.3 156.7 771.2 155.2C814 153.7 857 154.3 878.5 154.7L900 155L900 0L878.5 0C857 0 814 0 771.2 0C728.3 0 685.7 0 642.8 0C600 0 557 0 514.2 0C471.3 0 428.7 0 385.8 0C343 0 300 0 257.2 0C214.3 0 171.7 0 128.8 0C86 0 43 0 21.5 0L0 0Z" fill="#0066FF" stroke-linecap="round" stroke-linejoin="miter"></path></svg>